<?xml version="1.0" encoding="UTF-8" standalone="no"?>
<!-- Created with Inkscape (http://www.inkscape.org/) -->

<svg
   width="538.18787mm"
   height="166.46126mm"
   viewBox="0 0 538.18787 166.46126"
   version="1.1"
   id="svg5"
   inkscape:version="1.1.2 (b8e25be833, 2022-02-05)"
   sodipodi:docname="banner.svg"
   xmlns:inkscape="http://www.inkscape.org/namespaces/inkscape"
   xmlns:sodipodi="http://sodipodi.sourceforge.net/DTD/sodipodi-0.dtd"
   xmlns="http://www.w3.org/2000/svg"
   xmlns:svg="http://www.w3.org/2000/svg">
  <sodipodi:namedview
     id="namedview7"
     pagecolor="#ffffff"
     bordercolor="#666666"
     borderopacity="1.0"
     inkscape:pageshadow="2"
     inkscape:pageopacity="0.0"
     inkscape:pagecheckerboard="0"
     inkscape:document-units="mm"
     showgrid="false"
     units="mm"
     inkscape:zoom="0.675976"
     inkscape:cx="1148.7094"
     inkscape:cy="314.36027"
     inkscape:window-width="1920"
     inkscape:window-height="991"
     inkscape:window-x="-9"
     inkscape:window-y="-9"
     inkscape:window-maximized="1"
     inkscape:current-layer="layer1" />
  <defs
     id="defs2" />
  <g
     inkscape:label="Layer 1"
     inkscape:groupmode="layer"
     id="layer1"
     transform="translate(205.90668,-152.23564)">
    <rect
       style="fill:#191919;fill-opacity:1;stroke-width:1.69718;stroke-linecap:square"
       id="rect17093"
       width="538.18787"
       height="166.46126"
       x="-205.90668"
       y="152.23564" />
    <text
       xml:space="preserve"
       style="font-size:11.2889px;line-height:1.25;font-family:sans-serif;-inkscape-font-specification:'sans-serif, Normal';stroke-width:0.264583"
       x="-49.832214"
       y="256.73557"
       id="text1716"><tspan
         sodipodi:role="line"
         id="tspan1714"
         style="stroke-width:0.264583"
         x="-49.832214"
         y="256.73557" /></text>
    <g
       id="g34445"
       transform="translate(0,9.5080824)">
      <g
         id="g34406"
         transform="translate(9.3684665)">
        <g
           id="g17063"
           transform="translate(-201.35098,55.472319)">
          <circle
             style="fill:#00684a;fill-opacity:1;stroke-width:3.30682;stroke-linecap:square"
             id="path847"
             cx="73.751678"
             cy="147.50336"
             r="39.6875" />
          <path
             d="m 78.945432,124.37298 c -2.509568,-2.9644 -4.670577,-5.97512 -5.112079,-6.60044 -0.04648,-0.0464 -0.11619,-0.0464 -0.162675,0 -0.441502,0.62532 -2.602536,3.63604 -5.112099,6.60044 -21.540454,27.35116 3.392592,45.80932 3.392592,45.80932 l 0.209114,0.13884 c 0.185895,2.84874 0.650625,6.94784 0.650625,6.94784 h 0.929473 0.929473 c 0,0 0.464756,-4.07604 0.650642,-6.94784 l 0.209093,-0.162 c 0.02328,0 24.956249,-18.4351 3.41583,-45.78628 z m -5.205042,45.39238 c 0,0 -1.11536,-0.9495 -1.417422,-1.43588 v -0.0462 l 1.347717,-29.78311 c 0,-0.0927 0.139431,-0.0927 0.139431,0 l 1.347718,29.78311 v 0.0462 c -0.302087,0.48638 -1.417447,1.43588 -1.417444,1.43588 z"
             fill="#00684a"
             id="path2"
             style="fill:#00ed64;fill-opacity:1;stroke-width:0.230742" />
        </g>
        <g
           id="g17027"
           transform="translate(104.98067,136.68046)">
          <circle
             style="fill:#1b8855;fill-opacity:1;stroke-width:9.49277;stroke-linecap:square"
             id="path852"
             cx="130.25621"
             cy="66.295212"
             r="39.6875" />
          <g
             id="g828"
             transform="matrix(1.389667,0,0,1.389667,96.904196,32.943551)"
             style="fill:#ffffff;fill-opacity:1">
            <path
               style="fill:#ffffff;fill-opacity:1"
               d="m 24.007,45.419 c -0.574,0 -1.143,-0.15 -1.646,-0.44 l -5.24,-3.103 c -0.783,-0.438 -0.401,-0.593 -0.143,-0.682 1.044,-0.365 1.255,-0.448 2.369,-1.081 0.117,-0.067 0.27,-0.043 0.39,0.028 l 4.026,2.389 c 0.145,0.079 0.352,0.079 0.486,0 l 15.697,-9.061 c 0.145,-0.083 0.24,-0.251 0.24,-0.424 V 14.932 c 0,-0.181 -0.094,-0.342 -0.243,-0.432 L 24.253,5.446 C 24.108,5.36 23.915,5.36 23.77,5.446 L 8.082,14.499 C 7.93,14.585 7.833,14.754 7.833,14.927 v 18.114 c 0,0.173 0.094,0.338 0.244,0.42 l 4.299,2.483 c 2.334,1.167 3.76,-0.208 3.76,-1.591 V 16.476 c 0,-0.255 0.2,-0.452 0.456,-0.452 h 1.988 c 0.248,0 0.452,0.196 0.452,0.452 v 17.886 c 0,3.112 -1.697,4.9 -4.648,4.9 -0.908,0 -1.623,0 -3.619,-0.982 L 6.647,35.907 C 5.629,35.317 5,34.216 5,33.042 V 14.928 C 5,13.749 5.629,12.649 6.646,12.067 L 22.36,3.002 c 0.994,-0.562 2.314,-0.562 3.301,0 l 15.694,9.069 C 42.367,12.656 43,13.753 43,14.932 v 18.114 c 0,1.175 -0.633,2.271 -1.646,2.861 L 25.66,44.971 c -0.503,0.291 -1.073,0.44 -1.654,0.44"
               id="path2-8" />
            <path
               style="fill:#ffffff;fill-opacity:1"
               d="m 28.856,32.937 c -6.868,0 -8.308,-3.153 -8.308,-5.797 0,-0.251 0.203,-0.452 0.455,-0.452 h 2.028 c 0.224,0 0.413,0.163 0.448,0.384 0.306,2.066 1.218,3.108 5.371,3.108 3.308,0 4.715,-0.747 4.715,-2.502 0,-1.01 -0.401,-1.76 -5.54,-2.263 -4.299,-0.424 -6.955,-1.371 -6.955,-4.809 0,-3.167 2.672,-5.053 7.147,-5.053 5.026,0 7.517,1.745 7.831,5.493 0.012,0.13 -0.035,0.255 -0.122,0.35 -0.086,0.09 -0.208,0.145 -0.334,0.145 h -2.039 c -0.212,0 -0.397,-0.149 -0.44,-0.354 -0.491,-2.173 -1.678,-2.868 -4.904,-2.868 -3.611,0 -4.031,1.257 -4.031,2.2 0,1.143 0.495,1.477 5.367,2.122 4.825,0.64 7.116,1.544 7.116,4.935 0,3.418 -2.853,5.379 -7.827,5.379"
               id="path4" />
          </g>
        </g>
        <g
           id="g17032"
           transform="translate(-135.97202,-45.98607)">
          <circle
             style="fill:#eeeeee;fill-opacity:1;stroke-width:1.01081;stroke-linecap:square"
             id="path16330"
             cx="129.31812"
             cy="248.96175"
             r="39.6875" />
          <text
             xml:space="preserve"
             style="font-style:normal;font-variant:normal;font-weight:normal;font-stretch:normal;font-size:64.3853px;line-height:2.25;font-family:'Eras Light ITC';-inkscape-font-specification:'Eras Light ITC';fill:#000000;fill-opacity:1;stroke-width:0.447127"
             x="98.854561"
             y="264.83801"
             id="text1970"><tspan
               sodipodi:role="line"
               id="tspan1968"
               style="font-style:normal;font-variant:normal;font-weight:normal;font-stretch:normal;font-size:64.3853px;font-family:'Eras Light ITC';-inkscape-font-specification:'Eras Light ITC';fill:#000000;fill-opacity:1;stroke-width:0.447127"
               x="98.854561"
               y="264.83801">ex</tspan></text>
        </g>
        <g
           id="g17069"
           transform="translate(-153.20784,54.27635)">
          <circle
             style="fill:#00002f;fill-opacity:1;stroke-width:0.710968;stroke-linecap:square"
             id="path909"
             cx="267.49933"
             cy="148.69933"
             r="39.6875" />
          <g
             id="g885"
             transform="matrix(0.13909133,0,0,0.13909133,231.89056,113.09202)">
            <path
               d="m 410.66,180.72 v 0 q -7.67,-2.62 -15.45,-4.88 1.29,-5.25 2.38,-10.56 c 11.7,-56.9 4.05,-102.74 -22.06,-117.83 -25,-14.48 -66,0.61 -107.36,36.69 q -6.1,5.34 -11.95,11 -3.9,-3.76 -8,-7.36 C 204.87,49.2 161.42,32.95 135.34,48.09 c -25,14.51 -32.43,57.6 -21.9,111.53 q 1.58,8 3.55,15.93 c -6.15,1.75 -12.09,3.62 -17.77,5.6 C 48.46,198.9 16,226.73 16,255.59 c 0,29.82 34.84,59.72 87.77,77.85 q 6.44,2.19 13,4.07 -2.13,8.49 -3.77,17.17 c -10,53 -2.2,95.07 22.75,109.49 25.77,14.89 69,-0.41 111.14,-37.31 q 5,-4.38 10,-9.25 6.32,6.11 13,11.86 c 40.8,35.18 81.09,49.39 106,34.93 25.75,-14.94 34.12,-60.14 23.25,-115.13 q -1.25,-6.3 -2.88,-12.86 4.56,-1.35 8.93,-2.79 c 55,-18.27 90.83,-47.81 90.83,-78 -0.02,-29 -33.52,-57.01 -85.36,-74.9 z m -129,-81.08 c 35.43,-30.91 68.55,-43.11 83.65,-34.39 v 0 c 16.07,9.29 22.32,46.75 12.22,95.88 q -1,4.8 -2.16,9.57 A 487.83,487.83 0 0 0 311.19,160.54 481.27,481.27 0 0 0 270.62,109.79 Q 276,104.57 281.64,99.64 Z M 157.73,280.25 q 6.51,12.6 13.61,24.89 7.23,12.54 15.07,24.71 a 435.28,435.28 0 0 1 -44.24,-7.13 c 4.24,-13.72 9.46,-27.97 15.56,-42.47 z m 0,-48.33 c -6,-14.19 -11.08,-28.15 -15.25,-41.63 13.7,-3.07 28.3,-5.58 43.52,-7.48 q -7.65,11.94 -14.72,24.23 -7.07,12.29 -13.58,24.88 z m 10.9,24.17 q 9.48,-19.77 20.42,-38.78 v 0 q 10.93,-19 23.27,-37.13 c 14.28,-1.08 28.92,-1.65 43.71,-1.65 14.79,0 29.52,0.57 43.79,1.66 q 12.21,18.09 23.13,37 10.92,18.91 20.69,38.6 Q 334,275.63 323,294.73 v 0 q -10.91,19 -23,37.24 c -14.25,1 -29,1.55 -44,1.55 -15,0 -29.47,-0.47 -43.46,-1.38 Q 200.11,313.95 189.08,294.85 178.05,275.75 168.6,256.09 Z M 340.75,305 q 7.25,-12.58 13.92,-25.49 v 0 a 440.41,440.41 0 0 1 16.12,42.32 434.44,434.44 0 0 1 -44.79,7.65 q 7.62,-12.09 14.75,-24.48 z m 13.72,-73.07 q -6.64,-12.65 -13.81,-25 v 0 q -7,-12.18 -14.59,-24.06 c 15.31,1.94 30,4.52 43.77,7.67 a 439.89,439.89 0 0 1 -15.37,41.39 z M 256.23,124.48 v 0 a 439.75,439.75 0 0 1 28.25,34.18 q -28.35,-1.35 -56.74,0 c 9.33,-12.34 18.88,-23.79 28.49,-34.18 z M 145.66,65.86 c 16.06,-9.32 51.57,4 89,37.27 2.39,2.13 4.8,4.36 7.2,6.67 a 491.37,491.37 0 0 0 -40.86,50.71 499.12,499.12 0 0 0 -64.06,10 q -1.83,-7.36 -3.3,-14.82 v 0 c -9.05,-46.23 -3.06,-81.08 12.02,-89.83 z M 122.25,317.71 Q 116.25,316 110.4,314 C 87,306 67.67,295.56 54.4,284.19 42.52,274 36.5,263.83 36.5,255.59 c 0,-17.51 26.06,-39.85 69.52,-55 q 8.19,-2.85 16.52,-5.21 a 493.54,493.54 0 0 0 23.4,60.75 502.46,502.46 0 0 0 -23.69,61.58 z m 111.13,93.67 c -18.63,16.32 -37.29,27.89 -53.74,33.72 v 0 c -14.78,5.23 -26.55,5.38 -33.66,1.27 -15.14,-8.75 -21.44,-42.54 -12.85,-87.86 q 1.53,-8 3.5,-16 a 480.85,480.85 0 0 0 64.69,9.39 501.2,501.2 0 0 0 41.2,51 c -2.98,2.93 -6.03,5.75 -9.14,8.48 z m 23.42,-23.22 c -9.72,-10.51 -19.42,-22.14 -28.88,-34.64 q 13.79,0.54 28.08,0.54 c 9.78,0 19.46,-0.21 29,-0.64 a 439.33,439.33 0 0 1 -28.2,34.74 z m 124.52,28.59 c -2.86,15.44 -8.61,25.74 -15.72,29.86 -15.13,8.78 -47.48,-2.63 -82.36,-32.72 -4,-3.44 -8,-7.13 -12.07,-11 a 484.54,484.54 0 0 0 40.23,-51.2 477.84,477.84 0 0 0 65,-10.05 q 1.47,5.94 2.6,11.64 v 0 c 4.81,24.3 5.5,46.28 2.32,63.47 z m 17.4,-102.64 v 0 c -2.62,0.87 -5.32,1.71 -8.06,2.53 a 483.26,483.26 0 0 0 -24.31,-60.94 481.52,481.52 0 0 0 23.36,-60.06 c 4.91,1.43 9.68,2.93 14.27,4.52 44.42,15.32 71.52,38 71.52,55.43 0,18.6 -29.27,42.74 -76.78,58.52 z"
               id="path4-3"
               style="fill:#149eca;fill-opacity:1" />
            <path
               d="m 256,298.55 a 43,43 0 1 0 -42.86,-43 42.91,42.91 0 0 0 42.86,43 z"
               id="path6"
               style="fill:#149eca;fill-opacity:1" />
          </g>
        </g>
      </g>
      <g
         id="g34416"
         transform="translate(10.252128)">
        <text
           xml:space="preserve"
           style="font-size:38.1px;line-height:1.25;font-family:sans-serif;-inkscape-font-specification:'sans-serif, Normal';fill:#00ed64;fill-opacity:1;stroke:none;stroke-width:0.264583;stroke-opacity:1"
           x="-143.65413"
           y="288.6282"
           id="text3659"><tspan
             sodipodi:role="line"
             id="tspan3657"
             style="font-size:38.1px;fill:#00ed64;fill-opacity:1;stroke:none;stroke-width:0.264583;stroke-opacity:1"
             x="-143.65413"
             y="288.6282">M</tspan></text>
        <text
           xml:space="preserve"
           style="font-size:38.1px;line-height:1.25;font-family:sans-serif;-inkscape-font-specification:'sans-serif, Normal';fill:#eeeeee;fill-opacity:1;stroke:none;stroke-width:0.264583;stroke-opacity:1"
           x="-19.499632"
           y="288.6282"
           id="text3659-4"><tspan
             sodipodi:role="line"
             id="tspan3657-9"
             style="font-size:38.1px;fill:#eeeeee;fill-opacity:1;stroke:none;stroke-width:0.264583;stroke-opacity:1"
             x="-19.499632"
             y="288.6282">E</tspan></text>
        <text
           xml:space="preserve"
           style="font-size:38.1px;line-height:1.25;font-family:sans-serif;-inkscape-font-specification:'sans-serif, Normal';fill:#1b8855;fill-opacity:1;stroke:none;stroke-width:0.264583;stroke-opacity:1"
           x="220.94939"
           y="288.6282"
           id="text22831"><tspan
             sodipodi:role="line"
             id="tspan22829"
             style="font-size:38.1px;fill:#1b8855;fill-opacity:1;stroke:none;stroke-width:0.264583;stroke-opacity:1"
             x="220.94939"
             y="288.6282">N</tspan></text>
        <text
           xml:space="preserve"
           style="font-size:38.1px;line-height:1.25;font-family:sans-serif;-inkscape-font-specification:'sans-serif, Normal';fill:#149eca;fill-opacity:1;stroke:none;stroke-width:0.264583;stroke-opacity:1"
           x="99.111023"
           y="288.6282"
           id="text22835"><tspan
             sodipodi:role="line"
             id="tspan22833"
             style="font-size:38.1px;fill:#149eca;fill-opacity:1;stroke:none;stroke-width:0.264583;stroke-opacity:1"
             x="99.111023"
             y="288.6282">R</tspan></text>
      </g>
    </g>
  </g>
</svg>
