<?xml version="1.0" encoding="UTF-8" standalone="no"?>
<!-- Created with Inkscape (http://www.inkscape.org/) -->

<svg
   width="1500"
   height="500"
   viewBox="0 0 396.87499 132.29167"
   version="1.1"
   id="svg5"
   inkscape:version="1.1.2 (b8e25be833, 2022-02-05)"
   sodipodi:docname="drawing.svg"
   inkscape:export-filename="D:\drawing.png"
   inkscape:export-xdpi="96"
   inkscape:export-ydpi="96"
   xmlns:inkscape="http://www.inkscape.org/namespaces/inkscape"
   xmlns:sodipodi="http://sodipodi.sourceforge.net/DTD/sodipodi-0.dtd"
   xmlns="http://www.w3.org/2000/svg"
   xmlns:svg="http://www.w3.org/2000/svg">
  <sodipodi:namedview
     id="namedview7"
     pagecolor="#ffffff"
     bordercolor="#666666"
     borderopacity="1.0"
     inkscape:pageshadow="2"
     inkscape:pageopacity="0.0"
     inkscape:pagecheckerboard="0"
     inkscape:document-units="mm"
     showgrid="false"
     units="px"
     inkscape:zoom="1.13"
     inkscape:cx="583.62832"
     inkscape:cy="251.76991"
     inkscape:window-width="1920"
     inkscape:window-height="1001"
     inkscape:window-x="-9"
     inkscape:window-y="-9"
     inkscape:window-maximized="1"
     inkscape:current-layer="layer1" />
  <defs
     id="defs2" />
  <g
     inkscape:label="Layer 1"
     inkscape:groupmode="layer"
     id="layer1">
    <g
       id="g142033">
      <g
         id="g141999">
        <rect
           id="rect48527-6"
           width="63.105064"
           height="63.105064"
           x="99.66346"
           y="-100.19596"
           style="stroke-width:0.291055;fill:#fc490b;fill-opacity:1"
           rx="7.7271504"
           ry="7.7271504"
           transform="rotate(45)" />
        <text
           xml:space="preserve"
           style="font-style:normal;font-weight:normal;font-size:50.8px;line-height:0.85;font-family:sans-serif;fill:#ffffff;fill-opacity:1;stroke:none;stroke-width:0.264583"
           x="141.24754"
           y="24.795689"
           id="text1181"><tspan
             sodipodi:role="line"
             style="font-style:normal;font-variant:normal;font-weight:normal;font-stretch:normal;font-size:7.05556px;font-family:Mono;-inkscape-font-specification:Mono;text-align:center;text-anchor:middle;fill:#ffffff;stroke-width:0.264583"
             x="141.24754"
             y="24.795689"
             id="tspan6241">HTML</tspan><tspan
             sodipodi:role="line"
             style="font-style:normal;font-variant:normal;font-weight:normal;font-stretch:condensed;font-size:50.8px;font-family:'Agency FB';-inkscape-font-specification:'Agency FB Condensed';text-align:center;text-anchor:middle;fill:#ffffff;stroke-width:0.264583"
             x="141.24754"
             y="69.086861"
             id="tspan16505">5</tspan></text>
      </g>
      <g
         id="g142005">
        <rect
           id="rect48527-0-0"
           width="63.105064"
           height="63.105064"
           x="162.76851"
           y="-163.30104"
           style="stroke-width:0.291055;fill:#2196f3;fill-opacity:1"
           rx="7.7271504"
           ry="7.7271504"
           transform="rotate(45)" />
        <text
           xml:space="preserve"
           style="font-style:normal;font-weight:normal;font-size:10.5833px;line-height:0.95;font-family:sans-serif;fill:#000000;fill-opacity:1;stroke:none;stroke-width:0.264583"
           x="230.65901"
           y="25.529362"
           id="text50661"><tspan
             sodipodi:role="line"
             style="font-style:normal;font-variant:normal;font-weight:normal;font-stretch:normal;font-family:monospace;-inkscape-font-specification:monospace;text-align:center;text-anchor:middle;fill:#ffffff;stroke-width:0.264583"
             x="230.65901"
             y="25.529362"
             id="tspan50663">css</tspan><tspan
             sodipodi:role="line"
             style="font-style:normal;font-variant:normal;font-weight:normal;font-stretch:normal;font-size:50.8px;font-family:'Agency FB';-inkscape-font-specification:'Agency FB';text-align:center;text-anchor:middle;fill:#ffffff;stroke-width:0.264583"
             x="230.65901"
             y="67.591751"
             id="tspan50667">3</tspan></text>
      </g>
      <g
         id="g142010">
        <rect
           id="rect48527"
           width="63.105064"
           height="63.105064"
           x="162.76851"
           y="-100.19596"
           style="stroke-width:0.291055;fill:#ffdf00;fill-opacity:1"
           rx="7.7271504"
           ry="7.7271504"
           transform="rotate(45)" />
        <text
           xml:space="preserve"
           style="font-style:normal;font-weight:normal;font-size:50.8px;line-height:1.25;font-family:sans-serif;fill:#000000;fill-opacity:1;stroke:none;stroke-width:0.264583"
           x="163.60735"
           y="108.27716"
           id="text119947"><tspan
             sodipodi:role="line"
             id="tspan119945"
             style="font-style:normal;font-variant:normal;font-weight:bold;font-stretch:normal;font-size:50.8px;font-family:'Agency FB';-inkscape-font-specification:'Agency FB Bold';fill:#000000;stroke-width:0.264583"
             x="163.60735"
             y="108.27716">JS</tspan></text>
      </g>
      <g
         id="g142014">
        <rect
           id="rect48527-0"
           width="63.105064"
           height="63.105064"
           x="225.87358"
           y="-163.30101"
           style="stroke-width:0.291055;fill:#1a1a1a"
           rx="7.7271504"
           ry="7.7271504"
           transform="rotate(45)" />
        <path
           style="fill:#00ffff;stroke-width:0.0785547"
           d="m 264.03656,105.80622 c -1.09234,-0.15601 -2.11617,-0.90564 -2.58845,-1.89522 -0.36252,-0.75958 -0.49492,-1.44458 -0.49659,-2.56918 -0.002,-1.505386 0.30964,-3.069196 1.01045,-5.066786 0.52455,-1.49517 0.56224,-1.31509 -0.33738,-1.61224 -3.04221,-1.00488 -5.16414,-2.34952 -6.00745,-3.806848 -0.73112,-1.263452 -0.69789,-2.517029 0.10022,-3.780737 0.36661,-0.580488 1.15222,-1.336756 1.86902,-1.799219 1.07508,-0.693608 2.87216,-1.500999 4.35162,-1.955087 0.57855,-0.177574 0.68521,-0.235105 0.64119,-0.345869 -1.04804,-2.637359 -1.51849,-4.540335 -1.58804,-6.423631 -0.0347,-0.939863 -0.0168,-1.305855 0.0867,-1.770881 0.37419,-1.681913 1.36952,-2.683033 2.88057,-2.897339 1.50116,-0.212903 3.52535,0.495448 5.84809,2.046506 0.9792,0.653874 2.57121,1.921768 3.47768,2.769651 0.37867,0.354199 0.78447,0.729123 0.90178,0.833164 l 0.21328,0.189167 0.61016,-0.548451 c 3.08303,-2.771244 5.99871,-4.477126 8.3236,-4.869915 2.36036,-0.398779 4.11537,0.802366 4.55202,3.115442 0.29708,1.573706 -0.067,4.067884 -0.95644,6.5521 -0.15327,0.42808 -0.25068,0.801937 -0.21646,0.830794 0.0342,0.02886 0.43338,0.153033 0.88703,0.275945 1.06128,0.287542 2.263,0.714992 3.28695,1.169171 3.71402,1.647365 5.20821,4.062753 3.97042,6.41827 -0.98552,1.875457 -3.77558,3.471417 -7.88554,4.510687 -0.45351,0.11467 -0.83361,0.21755 -0.84467,0.22861 -0.0111,0.0111 0.11894,0.4236 0.2889,0.91674 0.66164,1.91977 0.97248,3.50409 0.97735,4.981476 0.006,1.68279 -0.33501,2.70082 -1.16662,3.48733 -1.04064,0.98419 -2.41873,1.1646 -4.28273,0.56064 -1.88858,-0.61192 -4.36634,-2.21887 -6.70091,-4.34588 l -0.69147,-0.63 -0.1869,0.14974 c -0.10279,0.0824 -0.58584,0.49704 -1.07344,0.92154 -2.86329,2.49269 -5.78395,4.10392 -7.92027,4.36937 -0.36611,0.0455 -0.70193,0.0784 -0.74627,0.073 -0.0443,-0.005 -0.30865,-0.0423 -0.58736,-0.0821 z m 1.96001,-1.80204 c 1.20121,-0.31886 3.03137,-1.32784 4.74192,-2.61423 0.9187,-0.6909 2.50523,-2.043816 2.55147,-2.175766 0.0149,-0.0425 -0.21488,-0.33257 -0.5106,-0.64462 -0.29573,-0.31204 -0.84907,-0.92759 -1.22966,-1.3679 -0.63761,-0.73767 -0.71782,-0.80362 -1.02121,-0.83956 -2.91913,-0.3458 -3.92369,-0.48807 -5.0765,-0.71895 -0.75317,-0.15084 -1.3953,-0.24712 -1.42695,-0.21396 -0.12241,0.12824 -0.94325,2.71552 -1.14319,3.60333 -0.17785,0.78969 -0.21151,1.129426 -0.21717,2.191466 -0.007,1.41237 0.0814,1.8192 0.51161,2.34113 0.56685,0.68768 1.39688,0.8169 2.82028,0.43906 z m 18.80147,-0.16814 c 1.09692,-0.60593 1.26942,-2.66556 0.47206,-5.636416 -0.17951,-0.66886 -0.72209,-2.35167 -0.78179,-2.42473 -0.0129,-0.0159 -0.61741,0.0623 -1.34325,0.17371 -1.22719,0.18833 -2.77094,0.3622 -4.32579,0.4872 -0.51131,0.0411 -0.67172,0.084 -0.75423,0.20183 -0.0576,0.0823 -0.60443,0.69422 -1.21509,1.35983 l -1.11029,1.21021 0.72548,0.6613 c 2.33315,2.126776 4.89709,3.721126 6.60988,4.110256 0.62,0.14086 1.31307,0.0833 1.72302,-0.14319 z m -9.55165,-7.269486 c -0.37804,-0.0125 -0.99652,-0.0125 -1.3744,0 l -0.68704,0.0227 0.6674,0.7222 0.66741,0.7222 0.70699,-0.7222 0.70699,-0.7222 z m 2.90718,-2.62853 c 0.83785,-1.05063 1.8072,-2.385856 2.66689,-3.673474 l 0.5514,-0.825868 -0.72972,-1.157048 c -0.89308,-1.416059 -1.34986,-2.076157 -2.6089,-3.770176 l -0.97794,-1.315791 -2.05332,0.0092 c -1.12932,0.0051 -2.39556,0.03159 -2.81386,0.05892 l -0.76054,0.04969 -0.66848,0.844029 c -0.83627,1.0559 -1.87362,2.485139 -2.69841,3.717826 l -0.63453,0.948337 0.52244,0.822097 c 0.76836,1.209057 1.94104,2.871298 2.87569,4.076218 l 0.82262,1.06048 0.65087,0.0443 c 0.35799,0.0243 1.64932,0.0509 2.86963,0.0589 l 2.21875,0.0146 z m -3.90875,-1.85584 c -0.85749,-0.27554 -1.5246,-0.848693 -1.89713,-1.629939 -1.02643,-2.152553 0.47985,-4.584016 2.83978,-4.584016 2.32486,0 3.84324,2.399299 2.86942,4.534178 -0.2289,0.501814 -0.77806,1.108117 -1.25904,1.390057 -0.74307,0.43557 -1.74523,0.54929 -2.55303,0.28972 z m 6.75571,2.4991 c 0.92119,-0.0944 2.75209,-0.36445 2.80071,-0.41306 0.0173,-0.0173 -0.31543,-0.72954 -0.7394,-1.58274 l -0.77085,-1.551269 -0.66213,0.970759 c -0.36417,0.53392 -0.92999,1.32425 -1.25738,1.7563 -0.79834,1.05354 -0.77262,1.00039 -0.45881,0.94826 0.14466,-0.024 0.6342,-0.0818 1.08786,-0.12825 z m -11.67529,-0.0934 c -0.0322,-0.054 -0.31828,-0.4428 -0.63584,-0.86397 -0.31757,-0.42118 -0.94532,-1.31519 -1.39501,-1.9867 l -0.81763,-1.220932 -0.31977,0.572717 c -0.69305,1.241255 -1.42804,2.753275 -1.36546,2.808995 0.0913,0.0813 1.63755,0.38272 3.05108,0.5948 1.44198,0.21635 1.5593,0.22387 1.48263,0.0951 z m 18.63261,-1.31294 c 3.53951,-1.1257 5.68845,-2.684753 5.68845,-4.126979 0,-1.577773 -2.63428,-3.322167 -6.71099,-4.443946 -0.50185,-0.138093 -0.92359,-0.237512 -0.93722,-0.220931 -0.0136,0.01658 -0.30955,0.613416 -0.65763,1.3263 -0.34808,0.712885 -0.954,1.854188 -1.34649,2.53623 l -0.71363,1.240076 0.56034,1.038011 c 0.49954,0.925383 1.38175,2.717629 1.5611,3.171449 l 0.067,0.16956 0.77059,-0.19415 c 0.42382,-0.10679 1.19713,-0.32982 1.71846,-0.49562 z m -24.22987,-1.04371 c 0.35138,-0.702079 0.88772,-1.716308 1.19188,-2.25384 0.30416,-0.537532 0.5518,-1.014752 0.55031,-1.060489 -0.002,-0.04574 -0.13704,-0.312932 -0.30124,-0.593765 -0.1642,-0.280833 -0.65578,-1.206345 -1.0924,-2.056693 l -0.79385,-1.546086 -1.17644,0.388958 c -1.36534,0.451409 -3.16366,1.312774 -3.89091,1.863683 -0.94927,0.719091 -1.48584,1.506227 -1.48745,2.182055 -0.003,1.175745 1.57763,2.541497 4.14134,3.578787 0.44998,0.18206 1.90217,0.68938 2.20072,0.76881 0.0106,0.003 0.30667,-0.56933 0.65804,-1.27142 z m 19.29171,-5.5007 c 0.70246,-1.303727 1.30734,-2.569774 1.2535,-2.623617 -0.10143,-0.101426 -4.21064,-0.654171 -4.86324,-0.654171 -0.14849,0 -0.14667,0.01272 0.0366,0.255303 0.46263,0.612349 1.88128,2.679655 2.34442,3.416361 0.27814,0.44243 0.52338,0.803921 0.54498,0.803314 0.0216,-6.29e-4 0.32929,-0.539343 0.68374,-1.19719 z M 267.1654,86.27894 c 0.34441,-0.50766 0.92589,-1.329539 1.29218,-1.826398 0.36629,-0.496858 0.65893,-0.910903 0.65031,-0.920099 -0.0276,-0.0295 -2.49369,0.355479 -3.34698,0.522506 -0.45366,0.0888 -0.8367,0.161561 -0.85121,0.161691 -0.0343,3.14e-4 1.28333,2.538235 1.44935,2.791619 0.0698,0.106534 0.1389,0.193699 0.15354,0.193699 0.0146,0 0.3084,-0.415358 0.65281,-0.923018 z m -2.112,-3.7557 c 0.79211,-0.186689 2.73401,-0.490862 4.20366,-0.658451 l 1.33435,-0.152161 0.31453,-0.344706 c 0.17298,-0.189588 0.74755,-0.810283 1.27682,-1.379323 0.52926,-0.569038 0.96229,-1.065135 0.96229,-1.102436 0,-0.07097 -1.1669,-1.157918 -2.04242,-1.902488 -2.53507,-2.155886 -4.98696,-3.456786 -6.55932,-3.480172 -0.54817,-0.0082 -0.6737,0.01726 -0.98278,0.198976 -0.64316,0.378123 -0.94033,1.16962 -0.93933,2.501816 0.001,1.709784 0.40438,3.363755 1.54274,6.330257 0.0543,0.141368 0.25234,0.138848 0.88946,-0.01131 z m 20.20029,-0.780836 c 0.83119,-2.275974 1.23485,-4.614865 1.01749,-5.895622 -0.37149,-2.188956 -1.95279,-2.551782 -4.9391,-1.133264 -1.40144,0.665697 -3.76729,2.344138 -5.27671,3.743546 l -0.50682,0.469876 0.86097,0.97568 c 0.47353,0.536625 0.99193,1.136816 1.15201,1.333759 l 0.29105,0.358077 1.27939,0.09364 c 1.67781,0.122805 3.16216,0.29796 4.42158,0.521753 1.49392,0.265462 1.42562,0.28424 1.70014,-0.467448 z m -9.87451,-0.530245 c -0.16385,-0.183621 -0.46496,-0.518488 -0.66913,-0.744147 l -0.37123,-0.41029 -0.68307,0.744147 -0.68308,0.744148 h 1.35221 1.3522 z"
           id="path124907" />
      </g>
    </g>
  </g>
</svg>
